<?xml version="1.0" encoding="UTF-8"?>
<svg xmlns="http://www.w3.org/2000/svg" xmlns:xlink="http://www.w3.org/1999/xlink" viewBox="0 0 90 90" width="90px" height="90px">
<g id="surface67705421">
<rect x="0" y="0" width="90" height="90" style="fill:rgb(0%,0%,0%);fill-opacity:1;stroke:none;"/>
<path style=" stroke:none;fill-rule:nonzero;fill:rgb(100%,100%,100%);fill-opacity:1;" d="M 76.695312 29.355469 C 76.324219 29.585938 67.542969 34.460938 67.542969 45.269531 C 67.957031 57.597656 78.628906 61.921875 78.808594 61.921875 C 78.628906 62.152344 77.199219 67.808594 72.96875 73.738281 C 69.613281 78.847656 65.886719 84 60.226562 84 C 54.847656 84 52.914062 80.59375 46.703125 80.59375 C 40.035156 80.59375 38.148438 84 33.042969 84 C 27.382812 84 23.382812 78.574219 19.84375 73.511719 C 15.242188 66.886719 11.335938 56.492188 11.195312 46.511719 C 11.101562 41.222656 12.117188 36.023438 14.691406 31.609375 C 18.324219 25.441406 24.808594 21.257812 31.894531 21.121094 C 37.320312 20.9375 42.148438 24.847656 45.460938 24.847656 C 48.636719 24.847656 54.570312 21.121094 61.285156 21.121094 C 64.183594 21.121094 71.910156 21.996094 76.695312 29.355469 Z M 45.003906 20.0625 C 44.035156 15.234375 46.703125 10.402344 49.1875 7.324219 C 52.363281 3.597656 57.375 1.066406 61.699219 1.066406 C 61.972656 5.898438 60.226562 10.636719 57.097656 14.085938 C 54.292969 17.8125 49.464844 20.617188 45.003906 20.0625 Z M 45.003906 20.0625 "/>
</g>
</svg>
