<?xml version="1.0" encoding="UTF-8"?>
<svg xmlns="http://www.w3.org/2000/svg" xmlns:xlink="http://www.w3.org/1999/xlink" viewBox="0 0 96 96" width="96px" height="96px">
<defs>
<linearGradient id="linear0" gradientUnits="userSpaceOnUse" x1="87.413628" y1="44.685059" x2="87.413628" y2="152.741379" gradientTransform="matrix(0.55814,0,0,0.55814,0,0)">
<stop offset="0" style="stop-color:rgb(43.921569%,87.450981%,100%);stop-opacity:1;"/>
<stop offset="1" style="stop-color:rgb(43.921569%,68.627453%,100%);stop-opacity:1;"/>
</linearGradient>
<linearGradient id="linear1" gradientUnits="userSpaceOnUse" x1="86" y1="16.125" x2="86" y2="155.875" >
<stop offset="0" style="stop-color:rgb(0%,77.64706%,100%);stop-opacity:1;"/>
<stop offset="1" style="stop-color:rgb(0%,44.705883%,100%);stop-opacity:1;"/>
</linearGradient>
</defs>
<g id="surface67727821">
<path style=" stroke:none;fill-rule:nonzero;fill:url(#linear0);" d="M 53.28125 58.335938 L 63.375 58.335938 L 64.960938 48.085938 L 53.28125 48.085938 L 53.28125 42.480469 C 53.28125 38.222656 54.671875 34.441406 58.65625 34.441406 L 65.058594 34.441406 L 65.058594 25.492188 C 63.933594 25.34375 61.554688 25.007812 57.058594 25.007812 C 47.671875 25.007812 42.171875 29.96875 42.171875 41.261719 L 42.171875 48.082031 L 32.523438 48.082031 L 32.523438 58.335938 L 42.171875 58.335938 L 42.171875 85.015625 C 44.078125 85.304688 46.015625 85.5 48 85.5 C 49.796875 85.5 51.550781 85.335938 53.28125 85.101562 Z M 53.28125 58.335938 "/>
<path style="fill:none;stroke-width:5.375;stroke-linecap:butt;stroke-linejoin:miter;stroke:url(#linear1);stroke-miterlimit:10;" d="M 86 18.8125 C 48.892904 18.8125 18.8125 48.892904 18.8125 86 C 18.8125 123.107096 48.892904 153.1875 86 153.1875 C 123.107096 153.1875 153.1875 123.107096 153.1875 86 C 153.1875 48.892904 123.107096 18.8125 86 18.8125 Z M 86 18.8125 " transform="matrix(0.55814,0,0,0.55814,0,0)"/>
</g>
</svg>
